<?xml version="1.0"?>
<svg xmlns="http://www.w3.org/2000/svg" viewBox="0 0 512 512" width="512" height="512"><g id="Reject-2" data-name="Reject"><path d="M472,392a88.118,88.118,0,0,0-80-87.633V16a8,8,0,0,0-8-8H48a8,8,0,0,0-8,8V496a8,8,0,0,0,8,8H384a8,8,0,0,0,8-8V479.633A88.118,88.118,0,0,0,472,392ZM56,488V24H376V304.367a88,88,0,0,0,0,175.266V488Zm328-24a72,72,0,1,1,72-72A72.081,72.081,0,0,1,384,464Z"/><path d="M80,184H192a8,8,0,0,0,8-8V64a8,8,0,0,0-8-8H80a8,8,0,0,0-8,8V176A8,8,0,0,0,80,184Zm24-16a24.027,24.027,0,0,1,24-24h16a24.027,24.027,0,0,1,24,24Zm32-48a16,16,0,1,1,16-16A16.019,16.019,0,0,1,136,120ZM88,72h96v96a40.062,40.062,0,0,0-28.823-38.4,32,32,0,1,0-38.354,0A40.062,40.062,0,0,0,88,168Z"/><path d="M224,112H352a8,8,0,0,0,0-16H224a8,8,0,0,0,0,16Z"/><path d="M224,136H352a8,8,0,0,0,0-16H224a8,8,0,0,0,0,16Z"/><path d="M224,160h48a8,8,0,0,0,0-16H224a8,8,0,0,0,0,16Z"/><path d="M296,144a8,8,0,0,0,0,16h8a8,8,0,0,0,0-16Z"/><path d="M208,264H80a8,8,0,0,0,0,16H208a8,8,0,0,0,0-16Z"/><path d="M208,288H80a8,8,0,0,0,0,16H208a8,8,0,0,0,0-16Z"/><path d="M128,312H80a8,8,0,0,0,0,16h48a8,8,0,0,0,0-16Z"/><path d="M160,312h-8a8,8,0,0,0,0,16h8a8,8,0,0,0,0-16Z"/><path d="M80,248H352a8,8,0,0,0,8-8V208a8,8,0,0,0-8-8H80a8,8,0,0,0-8,8v32A8,8,0,0,0,80,248Zm8-32H344v16H88Z"/><path d="M429.657,346.343a8,8,0,0,0-11.314,0L384,380.687l-34.343-34.344a8,8,0,0,0-11.314,11.314L372.687,392l-34.344,34.343a8,8,0,0,0,11.314,11.314L384,403.313l34.343,34.344a8,8,0,0,0,11.314-11.314L395.313,392l34.344-34.343A8,8,0,0,0,429.657,346.343Z"/></g></svg>
